<svg width="28" height="28" viewBox="0 0 28 28" fill="none" xmlns="http://www.w3.org/2000/svg">
<g id="Yes Grp">
<g id="Grp">
<rect id="Rectangle 5" width="28" height="28" rx="14" fill="#E68086"/>
</g>
<g id="Group 34">
<path id="Union" fill-rule="evenodd" clip-rule="evenodd" d="M19.5051 10.5049C19.8364 10.1735 19.8364 9.63625 19.5051 9.30488C19.1737 8.97351 18.6364 8.97351 18.3051 9.30488L14.4129 13.1971L10.6078 9.39201C10.2764 9.06063 9.73917 9.06063 9.4078 9.39201C9.07643 9.72338 9.07643 10.2606 9.4078 10.592L13.2129 14.3971L9.30504 18.3049C8.97366 18.6363 8.97367 19.1735 9.30504 19.5049C9.63641 19.8363 10.1737 19.8363 10.505 19.5049L14.4129 15.5971L18.4078 19.592C18.7392 19.9234 19.2765 19.9234 19.6078 19.592C19.9392 19.2607 19.9392 18.7234 19.6078 18.392L15.6129 14.3971L19.5051 10.5049Z" fill="#F9F7F2"/>
</g>
</g>
</svg>
